<!--?xml version="1.0" standalone="no"?-->
              <svg id="sw-js-blob-svg" viewBox="0 0 100 100" xmlns="http://www.w3.org/2000/svg" version="1.1">
                    <defs> 
                        <linearGradient id="sw-gradient" x1="0" x2="1" y1="1" y2="0">
                            <stop id="stop1" stop-color="rgba(0, 0, 0, 1)" offset="0%"></stop>
                            <stop id="stop2" stop-color="rgba(255, 255, 255, 1)" offset="100%"></stop>
                        </linearGradient>
                    </defs>
                <path fill="url(#sw-gradient)" d="M26.3,-35.1C33.8,-30.7,39.6,-22.7,41.9,-14C44.1,-5.3,42.9,4.1,39.2,12C35.6,19.8,29.6,26.1,22.6,30.4C15.7,34.8,7.9,37.1,0,37.1C-7.8,37.1,-15.7,34.7,-22.2,30.2C-28.6,25.8,-33.7,19.2,-35.9,11.8C-38.1,4.4,-37.4,-3.7,-35.7,-12.4C-34,-21.1,-31.3,-30.3,-25.2,-35.2C-19.1,-40.2,-9.6,-40.8,-0.1,-40.7C9.4,-40.5,18.7,-39.6,26.3,-35.1Z" width="100%" height="100%" transform="translate(50 50)" style="transition: all 0.3s ease 0s;" stroke-width="0" stroke="url(#sw-gradient)"></path>
              </svg>