<svg width="18" height="19" viewBox="0 0 18 19" fill="none" xmlns="http://www.w3.org/2000/svg">
<path d="M12.5 17.3334V15.6667H15.8333V7.33335H4.16668V10.6667H2.50001V4.00002C2.50001 3.54169 2.66307 3.14946 2.98918 2.82335C3.31584 2.49669 3.70834 2.33335 4.16668 2.33335H5.00001V0.666687H6.66668V2.33335H13.3333V0.666687H15V2.33335H15.8333C16.2917 2.33335 16.6842 2.49669 17.0108 2.82335C17.337 3.14946 17.5 3.54169 17.5 4.00002V15.6667C17.5 16.125 17.337 16.5175 17.0108 16.8442C16.6842 17.1703 16.2917 17.3334 15.8333 17.3334H12.5ZM6.66668 19L5.50001 17.8334L7.64584 15.6667H0.833344V14H7.64584L5.50001 11.8334L6.66668 10.6667L10.8333 14.8334L6.66668 19ZM4.16668 5.66669H15.8333V4.00002H4.16668V5.66669ZM4.16668 5.66669V4.00002V5.66669Z" fill="black"/>
</svg>
