<svg width="24" height="20" viewBox="0 0 24 20" fill="none" xmlns="http://www.w3.org/2000/svg">
<path d="M18.75 20C20.1424 20 21.4777 19.4732 22.4623 18.5355C23.4469 17.5979 24 16.3261 24 15C24 13.6739 23.4469 12.4021 22.4623 11.4645C21.4777 10.5268 20.1424 10 18.75 10C17.3576 10 16.0223 10.5268 15.0377 11.4645C14.0531 12.4021 13.5 13.6739 13.5 15C13.5 16.3261 14.0531 17.5979 15.0377 18.5355C16.0223 19.4732 17.3576 20 18.75 20ZM19.5 12.8571V15C19.5 15.1894 19.421 15.3711 19.2803 15.5051C19.1397 15.639 18.9489 15.7143 18.75 15.7143C18.5511 15.7143 18.3603 15.639 18.2197 15.5051C18.079 15.3711 18 15.1894 18 15V12.8571C18 12.6677 18.079 12.486 18.2197 12.3521C18.3603 12.2181 18.5511 12.1429 18.75 12.1429C18.9489 12.1429 19.1397 12.2181 19.2803 12.3521C19.421 12.486 19.5 12.6677 19.5 12.8571ZM19.5 17.1429C19.5 17.3323 19.421 17.514 19.2803 17.6479C19.1397 17.7819 18.9489 17.8571 18.75 17.8571C18.5511 17.8571 18.3603 17.7819 18.2197 17.6479C18.079 17.514 18 17.3323 18 17.1429C18 16.9534 18.079 16.7717 18.2197 16.6378C18.3603 16.5038 18.5511 16.4286 18.75 16.4286C18.9489 16.4286 19.1397 16.5038 19.2803 16.6378C19.421 16.7717 19.5 16.9534 19.5 17.1429Z" fill="black"/>
<path d="M3 0C2.20435 0 1.44129 0.301019 0.87868 0.836838C0.316071 1.37266 0 2.09938 0 2.85714L0 14.3C0.00396529 15.0553 0.321786 15.7783 0.883965 16.3111C1.44615 16.8438 2.20694 17.1429 3 17.1429H11.25C11.4489 17.1429 11.6397 17.0676 11.7803 16.9336C11.921 16.7997 12 16.618 12 16.4286C12 16.2391 11.921 16.0574 11.7803 15.9235C11.6397 15.7895 11.4489 15.7143 11.25 15.7143H3C2.66982 15.7143 2.34884 15.6106 2.08686 15.4192C1.82487 15.2278 1.63652 14.9594 1.551 14.6557L10.011 9.69714L12 10.8329L22.5 4.83286V9.28571C22.5 9.47515 22.579 9.65684 22.7197 9.79079C22.8603 9.92475 23.0511 10 23.25 10C23.4489 10 23.6397 9.92475 23.7803 9.79079C23.921 9.65684 24 9.47515 24 9.28571V2.85714C24 2.09938 23.6839 1.37266 23.1213 0.836838C22.5587 0.301019 21.7957 0 21 0H3ZM8.562 8.86857L1.5 13.0071V4.83286L8.562 8.86857ZM1.5 3.16714V2.85714C1.5 2.47826 1.65804 2.1149 1.93934 1.84699C2.22064 1.57908 2.60218 1.42857 3 1.42857H21C21.3978 1.42857 21.7794 1.57908 22.0607 1.84699C22.342 2.1149 22.5 2.47826 22.5 2.85714V3.16714L12 9.16714L1.5 3.16714Z" fill="black"/>
</svg>
