<svg width="24" height="24" viewBox="0 0 24 24" fill="none" xmlns="http://www.w3.org/2000/svg">
<g clip-path="url(#clip0_910_645)">
<path d="M13.8333 6.66666C15.3061 6.66666 16.5 5.47275 16.5 3.99999C16.5 2.52724 15.3061 1.33333 13.8333 1.33333C12.3605 1.33333 11.1666 2.52724 11.1666 3.99999C11.1666 5.47275 12.3605 6.66666 13.8333 6.66666Z" fill="#3F444E"/>
<path d="M16.56 17.4867C16.4864 17.4371 16.4035 17.4028 16.3164 17.3857C16.2293 17.3685 16.1396 17.369 16.0527 17.387C15.9658 17.405 15.8833 17.4402 15.8101 17.4905C15.737 17.5408 15.6746 17.6053 15.6267 17.68C14.9822 18.6344 14.1927 19.4824 13.2867 20.1933C13.0667 20.36 12.2467 20.9933 11.9 20.86C11.66 20.7867 11.8 20.3133 11.8467 20.1133L12.2 19.0667C12.3467 18.64 14.9 11.0667 15.18 10.2C15.5934 8.93334 15.4134 7.68667 13.5267 7.98667C13.0134 8.04001 7.8067 8.71334 7.71336 8.72001C7.62582 8.7257 7.54025 8.74858 7.46154 8.78734C7.38283 8.8261 7.31253 8.87998 7.25465 8.94591C7.19677 9.01184 7.15244 9.08853 7.12419 9.17159C7.09595 9.25465 7.08434 9.34246 7.09003 9.43001C7.09572 9.51756 7.1186 9.60313 7.15736 9.68183C7.19612 9.76054 7.25 9.83084 7.31593 9.88872C7.38186 9.9466 7.45855 9.99093 7.54161 10.0192C7.62467 10.0474 7.71248 10.059 7.80003 10.0533C7.80003 10.0533 9.80003 9.79334 10.02 9.77334C10.1327 9.76234 10.2462 9.78418 10.3467 9.83623C10.4473 9.88828 10.5306 9.96831 10.5867 10.0667C10.7075 10.4401 10.6909 10.8444 10.54 11.2067C10.3667 11.8733 7.6267 19.5933 7.54003 20.04C7.44707 20.4138 7.47288 20.8072 7.61387 21.1657C7.75485 21.5241 8.00401 21.8297 8.3267 22.04C8.93237 22.4437 9.65353 22.638 10.38 22.5933C11.0864 22.5847 11.785 22.4445 12.44 22.18C14.1 21.5133 15.8334 19.74 16.7467 18.3467C16.8253 18.2051 16.8498 18.0398 16.8154 17.8815C16.7811 17.7232 16.6903 17.5829 16.56 17.4867Z" fill="#3F444E"/>
</g>
<defs>
<clipPath id="clip0_910_645">
<rect width="24" height="24" rx="12" fill="white"/>
</clipPath>
</defs>
</svg>
