<svg width="19" height="19" viewBox="0 0 19 19" fill="none" xmlns="http://www.w3.org/2000/svg">
<path d="M1.5835 4.75001C1.5835 3.91016 1.91713 3.1047 2.51099 2.51084C3.10486 1.91697 3.91031 1.58334 4.75016 1.58334H14.2502C15.09 1.58334 15.8955 1.91697 16.4893 2.51084C17.0832 3.1047 17.4168 3.91016 17.4168 4.75001V14.25C17.4168 15.0899 17.0832 15.8953 16.4893 16.4892C15.8955 17.083 15.09 17.4167 14.2502 17.4167H4.75016C3.91031 17.4167 3.10486 17.083 2.51099 16.4892C1.91713 15.8953 1.5835 15.0899 1.5835 14.25V4.75001Z" stroke="black" stroke-width="1.66667" stroke-linecap="round" stroke-linejoin="round"/>
<path d="M6.72917 8.70833C7.82223 8.70833 8.70833 7.82223 8.70833 6.72917C8.70833 5.6361 7.82223 4.75 6.72917 4.75C5.6361 4.75 4.75 5.6361 4.75 6.72917C4.75 7.82223 5.6361 8.70833 6.72917 8.70833Z" stroke="black" stroke-width="1.66667" stroke-linecap="round" stroke-linejoin="round"/>
<path d="M11.4997 9.99163L4.75 17.4167H14.3553C15.1672 17.4167 15.9459 17.0941 16.52 16.52C17.0941 15.9459 17.4167 15.1672 17.4167 14.3553V14.25C17.4167 13.8811 17.2781 13.7394 17.0287 13.4663L13.8383 9.98688C13.6896 9.82468 13.5088 9.69525 13.3073 9.60685C13.1058 9.51846 12.888 9.47304 12.668 9.47348C12.448 9.47393 12.2304 9.52024 12.0293 9.60945C11.8281 9.69866 11.6478 9.82882 11.4997 9.99163V9.99163Z" stroke="black" stroke-width="1.66667" stroke-linecap="round" stroke-linejoin="round"/>
</svg>
