<svg width="20" height="20" viewBox="0 0 20 20" fill="none" xmlns="http://www.w3.org/2000/svg">
<path d="M10.1165 9.68453C9.73318 9.67626 9.35983 9.55876 9.04053 9.34541C8.70916 9.124 8.45089 8.8093 8.29838 8.44111C8.14587 8.07292 8.10597 7.66777 8.18372 7.27689C8.26147 6.88602 8.45338 6.52698 8.73518 6.24518C9.01698 5.96338 9.37602 5.77147 9.76689 5.69372C10.1578 5.61597 10.5629 5.65587 10.9311 5.80838C11.2993 5.96089 11.614 6.21916 11.8354 6.55053C12.0568 6.88185 12.175 7.27137 12.175 7.66986L10.1165 9.68453ZM10.1165 9.68453L10.1165 9.68485C10.3848 9.69065 10.6515 9.6428 10.901 9.54414C11.1505 9.44547 11.3778 9.29797 11.5695 9.11027C11.7613 8.92258 11.9136 8.69849 12.0176 8.45114C12.1215 8.20384 12.175 7.93826 12.175 7.67L10.1165 9.68453ZM15.2765 9.68453C14.8932 9.67626 14.5198 9.55876 14.2005 9.34541C13.8692 9.124 13.6109 8.8093 13.4584 8.44111C13.3059 8.07291 13.266 7.66776 13.3437 7.27689C13.4215 6.88602 13.6134 6.52698 13.8952 6.24518C14.177 5.96338 14.536 5.77147 14.9269 5.69372C15.3178 5.61597 15.7229 5.65587 16.0911 5.80838C16.4593 5.96089 16.774 6.21916 16.9954 6.55053C17.2168 6.88185 17.335 7.27137 17.335 7.66985L15.2765 9.68453ZM15.2765 9.68453L15.2765 9.68485C15.5448 9.69065 15.8115 9.6428 16.061 9.54414C16.3105 9.44547 16.5378 9.29797 16.7295 9.11027C16.9213 8.92259 17.0736 8.69849 17.1776 8.45114C17.2815 8.20384 17.335 7.93826 17.335 7.67L15.2765 9.68453ZM4 15.375H3.74112L3.55806 15.5581L0.625 18.4911V2C0.625 1.63533 0.769866 1.28559 1.02773 1.02773C1.28559 0.769866 1.63533 0.625 2 0.625H18C18.3647 0.625 18.7144 0.769866 18.9723 1.02773C19.2301 1.28559 19.375 1.63533 19.375 2V14C19.375 14.3647 19.2301 14.7144 18.9723 14.9723C18.7144 15.2301 18.3647 15.375 18 15.375H4ZM3.88173 9.35953C4.21689 9.57742 4.60928 9.69069 5.00899 9.68494C5.53836 9.67732 6.04347 9.46166 6.41511 9.0846C6.78675 8.70754 6.99505 8.19936 6.995 7.66994C6.99496 7.27018 6.87601 6.87947 6.65329 6.54751C6.43057 6.21554 6.11415 5.95733 5.74426 5.80571C5.37438 5.65408 4.96775 5.61591 4.57611 5.69604C4.18447 5.77617 3.82551 5.97097 3.54489 6.25569C3.26428 6.5404 3.07469 6.90214 3.00025 7.2949C2.9258 7.68766 2.96987 8.0937 3.12683 8.46134C3.2838 8.82899 3.54657 9.14165 3.88173 9.35953Z" stroke="black" stroke-width="1.25"/>
</svg>
